<svg width="18.000000" height="18.000000" viewBox="0 0 18 18" fill="none" xmlns="http://www.w3.org/2000/svg" xmlns:xlink="http://www.w3.org/1999/xlink">
	<desc>
			Created with Pixso.
	</desc>
	<defs>
		<clipPath id="clip8_1437">
			<rect id="Icon-Product" width="17.999996" height="18.000000" fill="white" fill-opacity="0"/>
		</clipPath>
	</defs>
	<g clip-path="url(#clip8_1437)">
		<path id="Fill 824" d="M12.1939 14.4117L16.6122 9.68274C16.9712 9.29834 16.9712 8.70166 16.6122 8.31726L12.1939 3.58826C11.8913 3.2644 11.3826 3.24988 11.0621 3.55591C10.7495 3.85437 10.732 4.34766 11.0227 4.66748L14.3498 8.32727C14.6966 8.70874 14.6966 9.29126 14.3498 9.67273L11.0227 13.3325C10.732 13.6523 10.7495 14.1456 11.0621 14.4441C11.3826 14.7501 11.8913 14.7356 12.1939 14.4117Z" fill="#262626" fill-opacity="1.000000" fill-rule="evenodd"/>
		<path id="Fill 792" d="M1.58334 9.83325L14.9167 9.83325C15.3769 9.83325 15.75 9.46008 15.75 8.99988C15.75 8.53967 15.3769 8.16663 14.9167 8.16663L1.58334 8.16663C1.1231 8.16663 0.75 8.53967 0.75 8.99988C0.75 9.46008 1.1231 9.83325 1.58334 9.83325Z" fill="#262626" fill-opacity="1.000000" fill-rule="evenodd"/>
	</g>
</svg>
