<svg width="24.000000" height="24.000000" viewBox="0 0 24 24" fill="none" xmlns="http://www.w3.org/2000/svg" xmlns:xlink="http://www.w3.org/1999/xlink">
	<desc>
			Created with Pixso.
	</desc>
	<defs/>
	<path id="Vector" d="M3.37488 10.8879C8.74359 8.62993 12.3235 7.14134 14.1148 6.42212C19.2292 4.36862 20.2919 4.0119 20.9846 4.00012C21.1369 3.99753 21.4775 4.03398 21.6982 4.20682C21.8845 4.35275 21.9358 4.5499 21.9603 4.68826C21.9849 4.82663 22.0154 5.14183 21.9911 5.38811C21.714 8.1992 20.5147 15.021 19.9047 18.1694C19.6465 19.5017 19.1382 19.9483 18.6461 19.9921C17.5766 20.0871 16.7645 19.3098 15.7287 18.6543C14.1078 17.6287 13.1921 16.9902 11.6188 15.9893C9.80054 14.8327 10.9792 14.1969 12.0154 13.158C12.2866 12.8861 16.9987 8.74867 17.0899 8.37335C17.1013 8.3264 17.1119 8.15143 17.0042 8.05904C16.8965 7.96664 16.7376 7.99825 16.6229 8.02336C16.4604 8.05899 13.871 9.71112 8.85486 12.9798C8.11987 13.467 7.45416 13.7043 6.85773 13.6919C6.20013 13.6782 4.9353 13.333 3.995 13.0379C2.84167 12.6761 1.92505 12.4847 2.00482 11.8701C2.04645 11.55 2.50311 11.2226 3.37488 10.8879Z" fill="#FFFFFF" fill-opacity="1.000000" fill-rule="evenodd"/>
</svg>
