<svg width="18.000000" height="18.000000" viewBox="0 0 18 18" fill="none" xmlns="http://www.w3.org/2000/svg" xmlns:xlink="http://www.w3.org/1999/xlink">
	<desc>
			Created with Pixso.
	</desc>
	<defs>
		<clipPath id="clip4_1370">
			<rect id="Icon Name=call" width="17.999996" height="18.000000" fill="white" fill-opacity="0"/>
		</clipPath>
	</defs>
	<g clip-path="url(#clip4_1370)">
		<path id="Vector" d="M15.75 9C16.1642 9 16.504 8.66345 16.4629 8.25122C16.1105 4.71228 13.2878 1.88953 9.74878 1.53711C9.33661 1.49609 9 1.83582 9 2.25C9 2.66418 9.33707 2.995 9.74808 3.04639C12.4595 3.38513 14.6148 5.54053 14.9536 8.25195C15.0049 8.66296 15.3358 9 15.75 9ZM10.5 16.5L14.25 16.5C15.0772 16.5 15.75 15.8273 15.75 15L15.75 12C15.75 11.1727 15.0772 10.5 14.25 10.5L11.25 10.5C10.8386 10.5 10.4655 10.6664 10.1942 10.9354C9.76889 11.3572 9.22198 11.8671 8.67212 11.6293C7.64624 11.1857 6.836 10.3706 6.38724 9.33032C6.14929 8.77881 6.65656 8.22571 7.0752 7.79492C7.33795 7.52466 7.5 7.15588 7.5 6.75L7.5 3.75C7.5 2.92273 6.82724 2.25 6 2.25L3 2.25C2.17276 2.25 1.5 2.92273 1.5 3.75L1.5 7.5C1.5 12.4628 5.53726 16.5 10.5 16.5ZM3 7.5L3 4.75C3 4.19775 3.44772 3.75 4 3.75L5 3.75C5.55228 3.75 6 4.19775 6 4.75L6 6C6 6.41418 5.66422 6.75 5.25 6.75C5.04901 6.75 4.85626 6.8302 4.71524 6.97351C4.57425 7.11755 4.49701 7.31104 4.5 7.51196C4.55399 10.9253 7.134 13.5 10.5 13.5C10.914 13.5 11.25 13.1641 11.25 12.75C11.25 12.3358 11.5858 12 12 12L13.2502 12C13.8024 12 14.2502 12.4475 14.2502 12.9998L14.2505 13.9998C14.2505 14.5521 13.8029 15 13.2505 15L10.5 15C6.3645 15 3 11.6355 3 7.5ZM12.9773 9C13.4166 9 13.7797 8.64148 13.7071 8.20813C13.3721 6.20923 11.7907 4.62793 9.79181 4.29297C9.35855 4.22034 9 4.58337 9 5.02271C9 5.46204 9.36157 5.80798 9.78723 5.91663C10.9105 6.20349 11.7965 7.08948 12.0833 8.21277C12.192 8.63843 12.538 9 12.9773 9ZM9.65372 7.8031C9.32346 7.62231 9 7.94165 9 8.31824C9 8.6947 9.30527 9 9.68182 9C10.0584 9 10.3777 8.67651 10.1968 8.34631C10.0715 8.11743 9.88251 7.92847 9.65372 7.8031Z" fill="#505050" fill-opacity="1.000000" fill-rule="evenodd"/>
	</g>
</svg>
