<svg width="20.000000" height="12.000000" viewBox="0 0 20 12" fill="none" xmlns="http://www.w3.org/2000/svg" xmlns:xlink="http://www.w3.org/1999/xlink">
	<desc>
			Created with Pixso.
	</desc>
	<defs/>
	<path id="Fill 1" d="M19.494 12L16.9286 12C16.091 12 15.9858 11.3743 14.4501 9.87209C13.155 8.56252 12.6006 8.45894 12.2867 8.45894C12.0071 8.45894 11.815 8.67397 11.815 9.1743L11.815 11.1774C11.815 11.768 11.4834 12 10.1227 12C7.88831 12 5.4104 10.5874 3.52533 7.97618C0.71582 4.09531 0 1.19812 0 0.572403C0 0.232605 0.24469 0 0.576355 0L2.86212 0C3.45557 0 3.68256 0.179291 3.89185 0.822571C4.93866 3.97052 6.80658 6.74231 7.59155 6.74231C7.88831 6.74231 7.92316 6.49216 7.92316 5.84827L7.92316 2.64702C7.92316 1.09575 7.06842 0.966125 7.06842 0.393723C7.06842 0.16658 7.2428 0 7.52179 0L11.1866 0C11.6755 0 11.7452 0.179291 11.7452 0.786835L11.7452 5.1329C11.7452 5.62839 11.8445 5.81253 12.0591 5.81253C12.3263 5.81253 12.5716 5.64717 13.054 5.09717C14.5583 3.3963 15.7943 0.6978 15.7943 0.6978C15.9509 0.357986 16.1436 0.125381 16.6667 0.125381L18.9526 0.125381C19.4071 0.125381 19.5986 0.37616 19.5117 0.822571C19.2493 2.0746 16.6141 5.884 16.6141 5.884C16.3701 6.27711 16.2654 6.49216 16.6141 6.86771C16.8589 7.18933 17.6267 7.88654 18.0978 8.53041C19.2493 9.78244 20 10.8376 20 11.4282C20 11.8746 19.7559 12 19.494 12Z" fill="#FFFFFF" fill-opacity="1.000000" fill-rule="evenodd"/>
</svg>
