<svg width="20.000000" height="14.000000" viewBox="0 0 20 14" fill="none" xmlns="http://www.w3.org/2000/svg" xmlns:xlink="http://www.w3.org/1999/xlink">
	<desc>
			Created with Pixso.
	</desc>
	<defs/>
	<path id="Fill 1" d="M8.18188 9.74126L8.18188 4.25891C9.96466 5.17839 11.6938 6.06955 13.4973 6.9987C11.7048 7.92371 9.98016 8.81348 8.18188 9.74126ZM19.8964 3.41956C19.8635 2.59334 19.6481 1.78232 19.0771 1.11636C18.3749 0.297745 17.3959 0.225204 16.4311 0.187897C14.2861 0.105698 12.1393 0.0690765 9.49713 0C7.57275 0.0759888 5.15302 0.151978 2.73712 0.27356C1.64752 0.328827 0.828247 0.871811 0.464172 1.91495C0.273438 2.46416 0.139587 3.05618 0.11499 3.6344C0.0380249 5.44987 -0.0162354 7.26811 0.00445557 9.08429C0.0140991 9.96785 0.15448 10.8611 0.334839 11.7294C0.565063 12.8361 1.30286 13.5152 2.43579 13.6962C3.14905 13.8102 3.87585 13.8696 4.59814 13.8952C8.72894 14.0416 12.859 14.052 16.9885 13.8143C18.3969 13.7335 19.3778 13.0254 19.6998 11.67C19.8712 10.946 19.9941 10.191 19.9979 9.44972C20.0089 7.43944 19.976 5.42778 19.8964 3.41956Z" fill="#FFFFFF" fill-opacity="1.000000" fill-rule="evenodd"/>
</svg>
