<svg width="44.000000" height="44.000000" viewBox="0 0 44 44" fill="none" xmlns="http://www.w3.org/2000/svg" xmlns:xlink="http://www.w3.org/1999/xlink">
	<desc>
			Created with Pixso.
	</desc>
	<defs/>
	<path id="Vector" d="M40.6 17.6001L41.8 17.6001C43.0144 17.6001 44 18.5857 44 19.8001L44 33.0001C44 34.2144 43.0144 35.2 41.8 35.2L40.6 35.2C40.0477 35.2 39.6 35.6478 39.6 36.2L39.6 39.6C39.6 42.0266 37.6266 44 35.2 44L4.39999 44C1.97339 44 0 42.0266 0 39.6L0 13.2001C0 10.7736 1.97339 8.80011 4.39999 8.80011L5.98279 8.80011C6.11002 8.80011 6.23608 8.77588 6.35422 8.72858L27.7816 0.156372C28.8464 -0.266052 30.0564 0.193787 30.5668 1.2168L34.0832 8.24744C34.2526 8.58618 34.5988 8.80011 34.9775 8.80011L35.2 8.80011C37.6266 8.80011 39.6 10.7736 39.6 13.2001L39.6 16.6001C39.6 17.1524 40.0477 17.6001 40.6 17.6001ZM28.7168 7.35291L27.9489 5.8172C27.7163 5.35199 27.166 5.14276 26.683 5.336L22.8446 6.8717C21.8224 7.2807 22.1151 8.80011 23.2161 8.80011L27.8224 8.80011C28.5657 8.80011 29.0493 8.01782 28.7168 7.35291ZM5.39999 39.6L34.1939 39.6C34.746 39.6 35.1939 39.1526 35.1939 38.6005L35.1951 36.2006C35.1951 35.6481 34.7476 35.2 34.1951 35.2L28.6 35.2C28.017 35.2 27.4582 34.9669 27.0446 34.5576L20.4446 27.9576C19.5844 27.0953 19.5844 25.7049 20.4446 24.8447L27.0446 18.2447C27.4582 17.8311 28.017 17.6001 28.6 17.6001L34.2 17.6001C34.7523 17.6001 35.2 17.1524 35.2 16.6001L35.2 14.2001C35.2 13.6478 34.7523 13.2001 34.2 13.2001L5.39999 13.2001C4.84772 13.2001 4.39999 13.6478 4.39999 14.2001L4.39999 38.6C4.39999 39.1523 4.84772 39.6 5.39999 39.6ZM29.925 30.8L38.6 30.8C39.1523 30.8 39.6 30.3524 39.6 29.8L39.6 23.0001C39.6 22.4478 39.1523 22.0001 38.6 22.0001L29.925 22.0001C29.6598 22.0001 29.4055 22.1055 29.2179 22.293L25.8179 25.693C25.4274 26.0835 25.4274 26.7167 25.8179 27.1072L29.2179 30.5071C29.4055 30.6947 29.6598 30.8 29.925 30.8ZM30.8 28.6C29.5856 28.6 28.6 27.6166 28.6 26.4001C28.6 25.1879 29.5856 24.2001 30.8 24.2001C32.0144 24.2001 33 25.1879 33 26.4001C33 27.6166 32.0144 28.6 30.8 28.6Z" fill="#541E66" fill-opacity="1.000000" fill-rule="evenodd"/>
</svg>
