<svg width="44.000000" height="36.000000" viewBox="0 0 44 36" fill="none" xmlns="http://www.w3.org/2000/svg" xmlns:xlink="http://www.w3.org/1999/xlink">
	<desc>
			Created with Pixso.
	</desc>
	<defs/>
	<path id="Vector" d="M44 22.5C44 18.5377 41.4656 15.2032 37.9808 14.004L35.8644 5.427C35.2506 2.28149 32.5292 0 29.392 0L14.608 0C11.4708 0 8.7494 2.28149 8.1356 5.42474L6.0192 14.004C2.5344 15.2032 0 18.5377 0 22.5C0 25.8165 1.782 28.6875 4.4 30.2468L4.4 31.5C4.4 33.75 4.4 36 7.7 36C11 36 11 33.75 11 31.5L33 31.5C33 33.75 33 36 36.3 36C39.6 36 39.6 33.75 39.6 31.5L39.6 30.2468C42.218 28.6875 44 25.8165 44 22.5ZM14.6087 4.5L29.3927 4.5C30.4377 4.5 31.3463 5.2605 31.5509 6.30902L33.3967 13.5L10.6047 13.5L12.4505 6.30676C12.6551 5.2605 13.5637 4.5 14.6087 4.5ZM35.2 27L8.8 27C6.3734 27 4.4 24.9818 4.4 22.5C4.4 20.0182 6.3734 18 8.8 18L35.2 18C37.6266 18 39.6 20.0182 39.6 22.5C39.6 24.9818 37.6266 27 35.2 27ZM8.8 22.5C8.8 21.258 9.7856 20.25 11 20.25C12.2144 20.25 13.2 21.258 13.2 22.5C13.2 23.742 12.2144 24.75 11 24.75C9.7856 24.75 8.8 23.742 8.8 22.5ZM19.8 24.75C18.585 24.75 17.6 23.7426 17.6 22.5C17.6 21.2574 18.585 20.25 19.8 20.25L24.2 20.25C25.415 20.25 26.4 21.2574 26.4 22.5C26.4 23.7426 25.415 24.75 24.2 24.75L19.8 24.75ZM30.8 22.5C30.8 21.258 31.7856 20.25 33 20.25C34.2144 20.25 35.2 21.258 35.2 22.5C35.2 23.742 34.2144 24.75 33 24.75C31.7856 24.75 30.8 23.742 30.8 22.5Z" fill="#800D63" fill-opacity="1.000000" fill-rule="evenodd"/>
</svg>
