<svg width="32.000000" height="43.604980" viewBox="0 0 32 43.605" fill="none" xmlns="http://www.w3.org/2000/svg" xmlns:xlink="http://www.w3.org/1999/xlink">
	<desc>
			Created with Pixso.
	</desc>
	<defs/>
	<path id="Fill 1450" d="M16 26.062C9.69827 26.062 4.57144 21.1434 4.57144 15.0977C4.57144 12.2606 5.72339 9.60388 7.66379 7.61554C8.23337 7.03186 9.14285 7.48053 9.14285 8.29608L9.14285 12.9048C9.14285 16.5317 12.2194 19.4834 16 19.4834C19.7806 19.4834 22.8571 16.5317 22.8571 12.9048L22.8571 8.29608C22.8571 7.48053 23.7666 7.03186 24.3362 7.61554C26.2766 9.60388 27.4286 12.2606 27.4286 15.0977C27.4286 21.1434 22.3017 26.062 16 26.062ZM32 15.0977C32 8.61548 27.7143 2.80438 21.3326 0.640015L19.6074 0.0539551C18.9588 -0.166382 18.2857 0.315857 18.2857 1.00079L18.2857 12.9048C18.2857 14.1152 17.2594 15.0977 16 15.0977C14.7406 15.0977 13.7143 14.1152 13.7143 12.9048L13.7143 1.00079C13.7143 0.315857 13.0412 -0.166382 12.3926 0.0539551L10.6674 0.640015C4.28571 2.80438 0 8.61548 0 15.0977C0 20.9842 3.48053 26.0925 8.56464 28.6669C8.91354 28.8436 9.14285 29.1964 9.14285 29.5875L9.14285 42.605C9.14285 43.1573 9.59058 43.605 10.1429 43.605L12.7143 43.605C13.2666 43.605 13.7143 43.1573 13.7143 42.605L13.7143 31.4478C13.7143 30.8954 14.162 30.4478 14.7143 30.4478L17.2857 30.4478C17.838 30.4478 18.2857 30.8954 18.2857 31.4478L18.2857 42.605C18.2857 43.1573 18.7334 43.605 19.2857 43.605L21.8571 43.605C22.4094 43.605 22.8571 43.1573 22.8571 42.605L22.8571 29.5875C22.8571 29.1964 23.0864 28.8436 23.4354 28.6669C28.5195 26.0925 32 20.9842 32 15.0977Z" fill="#DE0C74" fill-opacity="1.000000" fill-rule="evenodd"/>
</svg>
