<svg width="18.000000" height="18.000000" viewBox="0 0 18 18" fill="none" xmlns="http://www.w3.org/2000/svg" xmlns:xlink="http://www.w3.org/1999/xlink">
	<desc>
			Created with Pixso.
	</desc>
	<defs>
		<clipPath id="clip4_1399">
			<rect id="Icon Name=chat" width="17.999996" height="18.000000" fill="white" fill-opacity="0"/>
		</clipPath>
	</defs>
	<g clip-path="url(#clip4_1399)">
		<path id="Vector" d="M6.1001 16.05C5.44067 16.5444 4.5 16.074 4.5 15.25C4.5 14.6978 4.05225 14.25 3.5 14.25L3 14.25C2.17285 14.25 1.5 13.5771 1.5 12.75L1.5 3.75C1.5 2.92285 2.17285 2.25 3 2.25L15 2.25C15.8271 2.25 16.5 2.92285 16.5 3.75L16.5 12.75C16.5 13.5771 15.8271 14.25 15 14.25L8.83301 14.25C8.6167 14.25 8.40625 14.3201 8.23315 14.45L6.1001 16.05ZM3 4.75L3 11.75C3 12.3022 3.44775 12.75 4 12.75L5.5 12.75C5.77612 12.75 6 12.9739 6 13.25C6 13.6621 6.47046 13.8972 6.80005 13.6501L7.73364 12.95C7.90674 12.8201 8.11719 12.75 8.3335 12.75L14 12.75C14.5522 12.75 15 12.3022 15 11.75L15 4.75C15 4.19775 14.5522 3.75 14 3.75L4 3.75C3.44775 3.75 3 4.19775 3 4.75ZM6 6L12 6C12.4143 6 12.75 6.33569 12.75 6.75C12.75 7.16431 12.4143 7.5 12 7.5L6 7.5C5.58569 7.5 5.25 7.16431 5.25 6.75C5.25 6.33569 5.58569 6 6 6ZM12 9L6 9C5.58569 9 5.25 9.33569 5.25 9.75C5.25 10.1643 5.58569 10.5 6 10.5L12 10.5C12.4143 10.5 12.75 10.1643 12.75 9.75C12.75 9.33569 12.4143 9 12 9Z" fill="#262626" fill-opacity="1.000000" fill-rule="evenodd"/>
	</g>
</svg>
