<svg width="20.000000" height="14.000000" viewBox="0 0 20 14" fill="none" xmlns="http://www.w3.org/2000/svg" xmlns:xlink="http://www.w3.org/1999/xlink">
	<desc>
			Created with Pixso.
	</desc>
	<defs/>
	<path id="Fill 1" d="M8.18188 9.74121L8.18188 4.25879C9.9646 5.17847 11.6938 6.06958 13.4973 6.99878C11.7048 7.92383 9.98022 8.81348 8.18188 9.74121ZM19.8965 3.41968C19.8635 2.59326 19.6482 1.78223 19.0771 1.11646C18.3748 0.297852 17.3958 0.225098 16.4312 0.187988C14.2861 0.105713 12.1394 0.0690918 9.49707 0C7.57275 0.0759277 5.15308 0.1521 2.73706 0.273682C1.64746 0.328857 0.828369 0.871826 0.464111 1.91504C0.273438 2.46411 0.139648 3.05615 0.11499 3.63452C0.0380859 5.44995 -0.0163574 7.26807 0.00439453 9.08423C0.0141602 9.96777 0.154541 10.8611 0.334961 11.7295C0.565186 12.8362 1.30298 13.5151 2.43579 13.6963C3.14917 13.8103 3.87598 13.8696 4.59814 13.8953C8.729 14.0415 12.8591 14.052 16.9885 13.8142C18.397 13.7334 19.3779 13.0254 19.7 11.6699C19.8711 10.946 19.9941 10.1909 19.998 9.44971C20.009 7.43945 19.9761 5.42773 19.8965 3.41968Z" fill="#262626" fill-opacity="1.000000" fill-rule="evenodd"/>
</svg>
