<svg width="18.000000" height="18.000000" viewBox="0 0 18 18" fill="none" xmlns="http://www.w3.org/2000/svg" xmlns:xlink="http://www.w3.org/1999/xlink">
	<desc>
			Created with Pixso.
	</desc>
	<defs>
		<clipPath id="clip6_1395">
			<rect id="Icon-Product" width="17.999996" height="18.000000" fill="white" fill-opacity="0"/>
		</clipPath>
	</defs>
	<g clip-path="url(#clip6_1395)">
		<path id="Fill 824" d="M12.1939 14.4119L16.6122 9.68262C16.9712 9.29834 16.9712 8.70166 16.6122 8.31738L12.1939 3.58813C11.8913 3.2644 11.3826 3.24976 11.0621 3.55591C10.7495 3.85425 10.732 4.34766 11.0227 4.66748L14.3498 8.32739C14.6966 8.70874 14.6966 9.29126 14.3498 9.67261L11.0227 13.3325C10.732 13.6523 10.7495 14.1458 11.0621 14.4441C11.3826 14.7502 11.8913 14.7356 12.1939 14.4119Z" fill="#FFFFFF" fill-opacity="1.000000" fill-rule="evenodd"/>
		<path id="Fill 792" d="M1.58334 9.83325L14.9167 9.83325C15.3769 9.83325 15.75 9.46021 15.75 9C15.75 8.53955 15.3769 8.1665 14.9167 8.1665L1.58334 8.1665C1.12311 8.1665 0.75 8.53955 0.75 9C0.75 9.46021 1.12311 9.83325 1.58334 9.83325Z" fill="#FFFFFF" fill-opacity="1.000000" fill-rule="evenodd"/>
	</g>
</svg>
