<svg width="20.000000" height="16.000000" viewBox="0 0 20 16" fill="none" xmlns="http://www.w3.org/2000/svg" xmlns:xlink="http://www.w3.org/1999/xlink">
	<desc>
			Created with Pixso.
	</desc>
	<defs/>
	<path id="Vector" d="M1.375 6.88794C6.74365 4.62988 10.3235 3.14136 12.1147 2.42212C17.2292 0.368652 18.292 0.0119629 18.9846 0.000244141C19.137 -0.00244141 19.4775 0.0339355 19.6982 0.206787C19.8845 0.352783 19.9358 0.549805 19.9602 0.688232C19.9849 0.82666 20.0154 1.14185 19.9912 1.38818C19.7139 4.19922 18.5146 11.021 17.9045 14.1694C17.6465 15.5017 17.1382 15.9482 16.646 15.9922C15.5767 16.0872 14.7644 15.3098 13.7288 14.6543C12.1079 13.6287 11.1921 12.9902 9.6189 11.9893C7.80054 10.8328 8.97925 10.197 10.0154 9.15796C10.2866 8.88599 14.9988 4.74878 15.0898 4.37329C15.1013 4.32642 15.1118 4.15137 15.0042 4.05908C14.8965 3.96655 14.7375 3.99829 14.623 4.02344C14.4604 4.05908 11.8711 5.71118 6.85498 8.97974C6.11987 9.46704 5.4541 9.70435 4.85767 9.69189C4.2002 9.67822 2.9353 9.33301 1.99487 9.03784C0.841553 8.67603 -0.0749512 8.48462 0.00488281 7.87012C0.0463867 7.55005 0.503174 7.22266 1.375 6.88794Z" fill="#262626" fill-opacity="1.000000" fill-rule="evenodd"/>
</svg>
