<svg width="20.000000" height="12.000000" viewBox="0 0 20 12" fill="none" xmlns="http://www.w3.org/2000/svg" xmlns:xlink="http://www.w3.org/1999/xlink">
	<desc>
			Created with Pixso.
	</desc>
	<defs/>
	<path id="Fill 1" d="M19.4939 12L16.9287 12C16.0911 12 15.9858 11.3743 14.4502 9.87207C13.155 8.5625 12.6006 8.45898 12.2866 8.45898C12.0071 8.45898 11.8149 8.67407 11.8149 9.17432L11.8149 11.1775C11.8149 11.7681 11.4834 12 10.1226 12C7.88818 12 5.4104 10.5874 3.52539 7.97607C0.71582 4.09521 0 1.19824 0 0.57251C0 0.232666 0.244629 0 0.576416 0L2.86206 0C3.45557 0 3.68262 0.179199 3.89185 0.82251C4.93872 3.97046 6.80664 6.74243 7.59155 6.74243C7.88818 6.74243 7.9231 6.49219 7.9231 5.84814L7.9231 2.64697C7.9231 1.0957 7.06836 0.966064 7.06836 0.393799C7.06836 0.166504 7.24268 0 7.52173 0L11.1865 0C11.6755 0 11.7451 0.179199 11.7451 0.786865L11.7451 5.13281C11.7451 5.62842 11.8445 5.8125 12.0591 5.8125C12.3262 5.8125 12.5715 5.64722 13.054 5.09717C14.5583 3.39624 15.7942 0.697754 15.7942 0.697754C15.9509 0.35791 16.1436 0.125488 16.6667 0.125488L18.9526 0.125488C19.4072 0.125488 19.5986 0.376221 19.5117 0.82251C19.2493 2.07471 16.6143 5.88403 16.6143 5.88403C16.3701 6.2771 16.2654 6.49219 16.6143 6.86768C16.8589 7.18945 17.6267 7.88647 18.0979 8.53052C19.2493 9.78247 20 10.8376 20 11.4282C20 11.8745 19.7559 12 19.4939 12Z" fill="#262626" fill-opacity="1.000000" fill-rule="evenodd"/>
</svg>
