<svg width="105.000000" height="35.064941" viewBox="0 0 105 35.0649" fill="none" xmlns="http://www.w3.org/2000/svg" xmlns:xlink="http://www.w3.org/1999/xlink">
	<desc>
			Created with Pixso.
	</desc>
	<defs/>
	<rect id="Logo" width="105.000000" height="20.000000" transform="translate(0.000000 8.396484)" fill="#FFFFFF" fill-opacity="0"/>
	<path id="Vector" d="M6.46637 8.34302L6.46637 11.3728L6.52625 11.3577C7.12329 10.8008 7.76404 10.2942 8.44226 9.84277C9.11011 9.3999 9.83557 9.05322 10.5977 8.81274C11.4468 8.55103 12.3296 8.41821 13.2172 8.4187C14.4523 8.41943 15.6761 8.65576 16.8246 9.11548C17.9544 9.57495 18.9749 10.272 19.8183 11.1606C20.6777 12.0906 21.3399 13.1887 21.7642 14.3872C22.7017 17.1665 22.7017 20.1821 21.7642 22.9614C21.3331 24.1658 20.6719 25.2725 19.8183 26.2183C18.9754 27.1113 17.9551 27.8135 16.8246 28.2786C15.6616 28.7632 14.4152 29.0105 13.1573 29.0056C11.9524 29.0137 10.7592 28.7659 9.65466 28.2786C8.45721 27.6995 7.36426 26.9211 6.42151 25.9758L6.42151 35.0649L0 35.0649L0 31.5657L2.87396 31.5657L2.87396 11.7666L0 11.7666L0 8.34302L6.46637 8.34302ZM9.3703 24.5974C10.3237 25.1577 11.4114 25.4409 12.5137 25.4155L12.3939 25.4307C13.2212 25.4504 14.043 25.2903 14.8038 24.9609C15.5182 24.656 16.1609 24.2017 16.6899 23.6279C17.2394 23.0002 17.6616 22.2693 17.9323 21.4768C18.2509 20.5571 18.408 19.5881 18.3963 18.6138C18.4341 17.3379 18.1725 16.0713 17.6329 14.9175C17.1843 13.9429 16.4534 13.1292 15.5373 12.5847C14.5795 12.0215 13.4863 11.7383 12.379 11.7666C11.2825 11.75 10.2018 12.0327 9.25055 12.5847C8.36169 13.147 7.65833 13.9644 7.2298 14.9326C6.73737 16.0737 6.49237 17.3081 6.51129 18.5532C6.47601 19.8142 6.72156 21.0671 7.2298 22.219C7.68835 23.2131 8.43494 24.0427 9.3703 24.5974ZM30.1316 12.5239C29.1136 13.5376 28.4872 14.8862 28.3653 16.3262L39.6815 16.3262C39.5756 14.885 38.9528 13.5327 37.9302 12.5239C36.8094 11.6604 35.4396 11.1926 34.0309 11.1926C32.6222 11.1926 31.2524 11.6604 30.1316 12.5239ZM43.6332 19.4316L28.051 19.4316L27.9312 19.4924C27.9125 20.5525 28.1873 21.5967 28.7245 22.5068C29.2538 23.3711 30.0106 24.0686 30.91 24.5217C31.9254 25.0225 33.0438 25.2715 34.1731 25.2488C35.0273 25.2966 35.8832 25.1941 36.7028 24.9458C37.4903 24.6724 38.2247 24.2625 38.8732 23.7339C39.5401 23.176 40.1116 22.5107 40.5646 21.7646L43.3787 23.9915C42.4711 25.467 41.2294 26.7029 39.7563 27.5967C38.0396 28.5576 36.1048 29.0486 34.1432 29.0208C32.7087 29.0278 31.2845 28.7764 29.937 28.2786C28.7125 27.8157 27.6026 27.0879 26.6848 26.1458C25.767 25.2039 25.0634 24.0706 24.6232 22.825C24.1204 21.4275 23.8719 19.9495 23.8897 18.4622C23.873 16.9702 24.1215 15.4873 24.6232 14.0842C25.0809 12.8474 25.7839 11.7185 26.6888 10.7668C27.5887 9.8252 28.6753 9.08691 29.8771 8.60059C31.163 8.10522 32.5278 7.85352 33.9037 7.85815C35.7389 7.8147 37.5509 8.28101 39.1426 9.20654C40.6226 10.1375 41.783 11.5073 42.4656 13.1299C43.28 15.1267 43.6776 17.2722 43.6332 19.4316ZM66.8813 28.4182L57.6607 28.4182L57.6607 25.0552L60.385 25.0552L66.1608 18.5076L59.9788 11.7666L57.2695 11.7666C55.9977 11.7073 54.7356 12.0176 53.6321 12.6604C52.6777 13.2761 51.9636 14.2075 51.6115 15.2961C51.1804 16.6921 50.988 18.1521 51.0426 19.6135L51.0426 28.4148L44.5463 28.4148L44.5463 24.9155L47.4202 24.9155L47.4202 11.7666L44.5463 11.7666L44.5463 8.4187L51.0276 8.4187L51.0276 12.1755C51.322 11.4993 51.6991 10.863 52.1503 10.282C52.5168 9.81885 52.9694 9.43286 53.4825 9.146C53.9955 8.86499 54.5525 8.67529 55.129 8.58545C55.8069 8.47266 56.4927 8.41699 57.1797 8.4187L66.9391 8.4187L66.9391 11.7666L64.6639 11.7666L68.436 15.9929L72.2081 11.7666L69.6634 11.7666L69.6634 8.4187L79.2582 8.4187L70.6663 18.0986L76.7817 24.9492L78.7725 24.9492L78.7725 28.4182L69.5519 28.4182L69.5519 24.9946L71.9918 24.9946L68.3013 20.7041L64.3965 25.0552L66.8813 25.0552L66.8813 28.4182Z" fill="#262626" fill-opacity="1.000000" fill-rule="evenodd"/>
	<path id="Vector" d="M88.8126 21.6587L88.8126 28.4209L91.9709 28.4209L91.9709 27.0684C93.3746 28.3525 95.1562 28.9946 97.3156 28.9946C99.5291 28.9946 101.284 28.4072 102.579 27.2324C103.902 26.0303 104.563 24.4592 104.563 22.5193C104.563 19.5413 102.701 17.6423 98.9758 16.8228L95.6151 16.126C94.5083 15.8801 93.6985 15.5659 93.1856 15.1833C92.6727 14.8008 92.4163 14.2544 92.4163 13.5442C92.4163 12.7517 92.7132 12.1233 93.3071 11.6589C93.9279 11.1943 94.7647 10.9622 95.8175 10.9622Q97.9049 10.9622 99.2173 11.9707Q99.2796 12.0186 99.3402 12.0686C100.258 12.7791 100.771 13.7354 100.879 14.9375L103.916 14.9375L103.916 8.42114L100.879 8.42114L100.879 9.9375Q99.9342 9.07007 98.8234 8.57739Q97.3629 7.92944 95.6151 7.92944Q93.5186 7.92944 91.9111 8.81592Q91.252 9.1792 90.6752 9.69165C89.3795 10.8391 88.7316 12.2463 88.7316 13.9128C88.7316 15.4702 89.177 16.6997 90.0678 17.6013Q91.4445 18.9539 94.3193 19.6506L97.3561 20.3472C99.7586 20.9209 100.96 21.8362 100.96 23.093C100.96 23.9128 100.609 24.582 99.907 25.1013C99.2322 25.593 98.3009 25.8389 97.1132 25.8389C95.6555 25.8389 94.4678 25.4702 93.55 24.7324C92.6322 23.9946 92.1059 22.9702 91.9709 21.6587L88.8126 21.6587ZM82.0871 28.4133L85.6502 28.4133L85.6502 8.41357L79.2932 8.41357L79.2932 11.7332L82.0871 11.7332L82.0871 28.4133Z" fill="#262626" fill-opacity="1.000000" fill-rule="evenodd"/>
	<path id="Vector" d="M90.9862 0L85.6574 6.05933L81.4213 6.05933L86.7801 0L90.9862 0Z" fill="#DE0C74" fill-opacity="1.000000" fill-rule="evenodd"/>
</svg>
